<mxfile host="65bd71144e">
    <diagram id="yPxyJZ8AM_hMuL3Unpa9" name="gitflow">
        <mxGraphModel dx="2224" dy="839" grid="1" gridSize="10" guides="1" tooltips="1" connect="1" arrows="1" fold="1" page="1" pageScale="1" pageWidth="1100" pageHeight="850" background="#ffffff" math="0" shadow="0">
            <root>
                <mxCell id="0"/>
                <mxCell id="1" parent="0"/>
                <mxCell id="23" value="" style="rounded=1;whiteSpace=wrap;html=1;fillColor=#CCCCCC;fontColor=#333333;strokeColor=#666666;" vertex="1" parent="1">
                    <mxGeometry x="-580" y="428" width="300" height="202" as="geometry"/>
                </mxCell>
                <mxCell id="5" value="" style="edgeStyle=none;orthogonalLoop=1;jettySize=auto;html=1;exitX=0.5;exitY=0;exitDx=0;exitDy=0;entryX=0.501;entryY=0.956;entryDx=0;entryDy=0;strokeColor=#333333;rounded=1;entryPerimeter=0;" edge="1" parent="1" source="8" target="27">
                    <mxGeometry width="100" relative="1" as="geometry">
                        <mxPoint x="-1020" y="445" as="sourcePoint"/>
                        <mxPoint x="-1020" y="410" as="targetPoint"/>
                        <Array as="points"/>
                    </mxGeometry>
                </mxCell>
                <mxCell id="6" value="" style="rounded=1;whiteSpace=wrap;html=1;fillColor=#CCCCCC;fontColor=#333333;strokeColor=#666666;" vertex="1" parent="1">
                    <mxGeometry x="-920" y="428" width="300" height="102" as="geometry"/>
                </mxCell>
                <mxCell id="8" value="&lt;font color=&quot;#000000&quot;&gt;Web Clients&lt;/font&gt;" style="rounded=1;whiteSpace=wrap;html=1;fillColor=#FFFFFF;strokeColor=#000000;" vertex="1" parent="1">
                    <mxGeometry x="-1080" y="440" width="120" height="60" as="geometry"/>
                </mxCell>
                <mxCell id="12" value="Namecheap / Render HTTPS" style="rounded=1;whiteSpace=wrap;html=1;fontColor=#000000;fillColor=#FFFFFF;strokeColor=#000000;" vertex="1" parent="1">
                    <mxGeometry x="-910" y="450" width="120" height="60" as="geometry"/>
                </mxCell>
                <mxCell id="13" value="RealGolf.Games web" style="rounded=1;whiteSpace=wrap;html=1;fontColor=#000000;fillColor=#FFFFFF;strokeColor=#000000;" vertex="1" parent="1">
                    <mxGeometry x="-755" y="450" width="120" height="60" as="geometry"/>
                </mxCell>
                <mxCell id="14" value="" style="edgeStyle=none;orthogonalLoop=1;jettySize=auto;html=1;rounded=1;strokeColor=#000000;fontColor=#000000;jumpStyle=none;exitX=1;exitY=0.5;exitDx=0;exitDy=0;entryX=0;entryY=0.5;entryDx=0;entryDy=0;" edge="1" parent="1" source="12" target="13">
                    <mxGeometry width="100" relative="1" as="geometry">
                        <mxPoint x="-780" y="370" as="sourcePoint"/>
                        <mxPoint x="-680" y="370" as="targetPoint"/>
                        <Array as="points"/>
                    </mxGeometry>
                </mxCell>
                <mxCell id="15" value="" style="rounded=1;whiteSpace=wrap;html=1;fillColor=#CCCCCC;fontColor=#333333;strokeColor=#666666;" vertex="1" parent="1">
                    <mxGeometry x="-930" y="170" width="140" height="82" as="geometry"/>
                </mxCell>
                <mxCell id="16" value="user db&lt;br&gt;primary" style="rounded=1;whiteSpace=wrap;html=1;fillColor=#009900;strokeColor=#000000;" vertex="1" parent="1">
                    <mxGeometry x="-915" y="190" width="110" height="52" as="geometry"/>
                </mxCell>
                <mxCell id="18" value="" style="rounded=1;whiteSpace=wrap;html=1;fillColor=#CCCCCC;fontColor=#333333;strokeColor=#666666;" vertex="1" parent="1">
                    <mxGeometry x="-745" y="170" width="140" height="82" as="geometry"/>
                </mxCell>
                <mxCell id="19" value="course db&lt;br&gt;primary" style="rounded=1;whiteSpace=wrap;html=1;fillColor=#009900;strokeColor=#000000;" vertex="1" parent="1">
                    <mxGeometry x="-730" y="190" width="110" height="52" as="geometry"/>
                </mxCell>
                <mxCell id="lyG4uXMeecLFZcEq1d1h-28" value="" style="endArrow=classic;html=1;exitX=1;exitY=0.5;exitDx=0;exitDy=0;entryX=0;entryY=0.5;entryDx=0;entryDy=0;strokeColor=#333333;rounded=1;jumpStyle=none;" parent="1" source="8" target="12" edge="1">
                    <mxGeometry width="50" height="50" relative="1" as="geometry">
                        <mxPoint x="-960" y="475" as="sourcePoint"/>
                        <mxPoint x="-930" y="475" as="targetPoint"/>
                        <Array as="points">
                            <mxPoint x="-930" y="470"/>
                            <mxPoint x="-930" y="480"/>
                        </Array>
                    </mxGeometry>
                </mxCell>
                <mxCell id="22" value="node server - &lt;br&gt;chat app" style="rounded=1;whiteSpace=wrap;html=1;fontColor=#000000;fillColor=#FFFFFF;strokeColor=#000000;" vertex="1" parent="1">
                    <mxGeometry x="-555" y="450" width="120" height="60" as="geometry"/>
                </mxCell>
                <mxCell id="24" value="Socket.io -&lt;br&gt;web sockets" style="rounded=1;whiteSpace=wrap;html=1;fontColor=#000000;fillColor=#FFFFFF;strokeColor=#000000;" vertex="1" parent="1">
                    <mxGeometry x="-435" y="538" width="120" height="60" as="geometry"/>
                </mxCell>
                <mxCell id="25" value="" style="edgeStyle=none;orthogonalLoop=1;jettySize=auto;html=1;rounded=1;strokeColor=#000000;fontColor=#000000;jumpStyle=none;exitX=1;exitY=0.5;exitDx=0;exitDy=0;entryX=0;entryY=0.5;entryDx=0;entryDy=0;" edge="1" parent="1" source="13" target="22">
                    <mxGeometry width="100" relative="1" as="geometry">
                        <mxPoint x="-620" y="479.83000000000004" as="sourcePoint"/>
                        <mxPoint x="-585" y="479.83000000000004" as="targetPoint"/>
                        <Array as="points"/>
                    </mxGeometry>
                </mxCell>
                <mxCell id="26" value="" style="edgeStyle=none;orthogonalLoop=1;jettySize=auto;html=1;rounded=1;strokeColor=#000000;fontColor=#000000;jumpStyle=none;exitX=1;exitY=0.75;exitDx=0;exitDy=0;entryX=0.5;entryY=0;entryDx=0;entryDy=0;" edge="1" parent="1" source="22" target="24">
                    <mxGeometry width="100" relative="1" as="geometry">
                        <mxPoint x="-420" y="500" as="sourcePoint"/>
                        <mxPoint x="-340" y="500" as="targetPoint"/>
                        <Array as="points">
                            <mxPoint x="-375" y="495"/>
                        </Array>
                    </mxGeometry>
                </mxCell>
                <mxCell id="27" value="CDN" style="ellipse;shape=cloud;whiteSpace=wrap;html=1;strokeColor=#000000;fontColor=#000000;fillColor=#FFFFFF;" vertex="1" parent="1">
                    <mxGeometry x="-1080" y="330" width="120" height="80" as="geometry"/>
                </mxCell>
                <mxCell id="28" value="alpha" style="text;html=1;align=center;verticalAlign=middle;resizable=0;points=[];autosize=1;strokeColor=none;fillColor=none;fontColor=#000000;" vertex="1" parent="1">
                    <mxGeometry x="-795" y="428" width="50" height="30" as="geometry"/>
                </mxCell>
                <mxCell id="29" value="bravo" style="text;html=1;align=center;verticalAlign=middle;resizable=0;points=[];autosize=1;strokeColor=none;fillColor=none;fontColor=#000000;" vertex="1" parent="1">
                    <mxGeometry x="-885" y="166" width="50" height="30" as="geometry"/>
                </mxCell>
                <mxCell id="30" value="charlie" style="text;html=1;align=center;verticalAlign=middle;resizable=0;points=[];autosize=1;strokeColor=none;fillColor=none;fontColor=#000000;" vertex="1" parent="1">
                    <mxGeometry x="-705" y="166" width="60" height="30" as="geometry"/>
                </mxCell>
                <mxCell id="31" value="delta" style="text;html=1;align=center;verticalAlign=middle;resizable=0;points=[];autosize=1;strokeColor=none;fillColor=none;fontColor=#000000;" vertex="1" parent="1">
                    <mxGeometry x="-455" y="428" width="50" height="30" as="geometry"/>
                </mxCell>
                <mxCell id="32" value="" style="rounded=1;whiteSpace=wrap;html=1;fillColor=#CCCCCC;fontColor=#333333;strokeColor=#666666;" vertex="1" parent="1">
                    <mxGeometry x="-920" y="270" width="300" height="140" as="geometry"/>
                </mxCell>
                <mxCell id="33" value="sierra" style="text;html=1;align=center;verticalAlign=middle;resizable=0;points=[];autosize=1;strokeColor=none;fillColor=none;fontColor=#000000;" vertex="1" parent="1">
                    <mxGeometry x="-795" y="270" width="50" height="30" as="geometry"/>
                </mxCell>
                <mxCell id="34" value="SvelteKit Server Side&lt;br&gt;TypeScript" style="rounded=1;whiteSpace=wrap;html=1;fontColor=#000000;fillColor=#FFFFFF;strokeColor=#000000;" vertex="1" parent="1">
                    <mxGeometry x="-895" y="310" width="250" height="60" as="geometry"/>
                </mxCell>
                <mxCell id="35" value="" style="edgeStyle=none;orthogonalLoop=1;jettySize=auto;html=1;endArrow=classic;startArrow=none;endSize=8;startSize=8;rounded=1;strokeColor=#000000;fontColor=#000000;jumpStyle=none;startFill=0;exitX=0.25;exitY=0;exitDx=0;exitDy=0;entryX=0.5;entryY=1;entryDx=0;entryDy=0;" edge="1" parent="1" source="34" target="15">
                    <mxGeometry width="100" relative="1" as="geometry">
                        <mxPoint x="-890" y="290" as="sourcePoint"/>
                        <mxPoint x="-790" y="290" as="targetPoint"/>
                        <Array as="points">
                            <mxPoint x="-832" y="290"/>
                            <mxPoint x="-860" y="290"/>
                        </Array>
                    </mxGeometry>
                </mxCell>
                <mxCell id="36" value="" style="edgeStyle=none;orthogonalLoop=1;jettySize=auto;html=1;rounded=1;strokeColor=#000000;fontColor=#000000;startArrow=none;startFill=0;jumpStyle=none;exitX=0.75;exitY=0;exitDx=0;exitDy=0;entryX=0.5;entryY=1;entryDx=0;entryDy=0;" edge="1" parent="1" source="34" target="18">
                    <mxGeometry width="100" relative="1" as="geometry">
                        <mxPoint x="-610" y="270" as="sourcePoint"/>
                        <mxPoint x="-510" y="270" as="targetPoint"/>
                        <Array as="points">
                            <mxPoint x="-707" y="290"/>
                            <mxPoint x="-675" y="290"/>
                            <mxPoint x="-675" y="280"/>
                        </Array>
                    </mxGeometry>
                </mxCell>
                <mxCell id="37" value="" style="endArrow=classic;html=1;rounded=1;strokeColor=#000000;fontColor=#000000;jumpStyle=none;exitX=0.5;exitY=0;exitDx=0;exitDy=0;entryX=0.5;entryY=1;entryDx=0;entryDy=0;" edge="1" parent="1" source="13" target="34">
                    <mxGeometry width="50" height="50" relative="1" as="geometry">
                        <mxPoint x="-580" y="420" as="sourcePoint"/>
                        <mxPoint x="-530" y="370" as="targetPoint"/>
                        <Array as="points">
                            <mxPoint x="-695" y="400"/>
                            <mxPoint x="-730" y="400"/>
                            <mxPoint x="-770" y="400"/>
                        </Array>
                    </mxGeometry>
                </mxCell>
            </root>
        </mxGraphModel>
    </diagram>
</mxfile>